<mxfile host="app.diagrams.net" modified="2024-03-31T17:42:54.453Z" agent="Mozilla/5.0 (X11; Linux x86_64; rv:91.0) Gecko/20100101 Firefox/91.0" etag="ElxKUrOLEua1aSH18Cm0" version="24.2.1" type="device" pages="2">
  <diagram name="Page-1" id="lcbCgOlhfpNpeAwwaqVS">
    <mxGraphModel dx="2035" dy="654" grid="1" gridSize="10" guides="1" tooltips="1" connect="1" arrows="1" fold="1" page="1" pageScale="1" pageWidth="850" pageHeight="1100" math="0" shadow="0">
      <root>
        <mxCell id="0" />
        <mxCell id="1" parent="0" />
        <mxCell id="LXzQ3wCeS5pLdYK0UjK4-2" value="Виртуализация переключения контекста" style="rounded=0;whiteSpace=wrap;html=1;" vertex="1" parent="1">
          <mxGeometry x="150" y="250" width="250" height="60" as="geometry" />
        </mxCell>
        <mxCell id="LXzQ3wCeS5pLdYK0UjK4-3" value="" style="endArrow=classic;html=1;rounded=0;entryX=0;entryY=0.5;entryDx=0;entryDy=0;" edge="1" parent="1" target="LXzQ3wCeS5pLdYK0UjK4-2">
          <mxGeometry width="50" height="50" relative="1" as="geometry">
            <mxPoint x="-10" y="280" as="sourcePoint" />
            <mxPoint x="450" y="380" as="targetPoint" />
          </mxGeometry>
        </mxCell>
        <mxCell id="LXzQ3wCeS5pLdYK0UjK4-4" value="Контекст выполнения гостевой ВМ" style="text;html=1;align=center;verticalAlign=middle;whiteSpace=wrap;rounded=0;" vertex="1" parent="1">
          <mxGeometry y="250" width="140" height="30" as="geometry" />
        </mxCell>
        <mxCell id="LXzQ3wCeS5pLdYK0UjK4-5" value="Модуль переключия контекста" style="text;html=1;align=center;verticalAlign=middle;whiteSpace=wrap;rounded=0;" vertex="1" parent="1">
          <mxGeometry x="330" y="180" width="100" height="30" as="geometry" />
        </mxCell>
        <mxCell id="LXzQ3wCeS5pLdYK0UjK4-6" value="" style="endArrow=classic;html=1;rounded=0;entryX=0.75;entryY=0;entryDx=0;entryDy=0;" edge="1" parent="1">
          <mxGeometry width="50" height="50" relative="1" as="geometry">
            <mxPoint x="330.5" y="150" as="sourcePoint" />
            <mxPoint x="330" y="250" as="targetPoint" />
          </mxGeometry>
        </mxCell>
        <mxCell id="LXzQ3wCeS5pLdYK0UjK4-7" value="" style="endArrow=classic;html=1;rounded=0;exitX=1;exitY=0.5;exitDx=0;exitDy=0;" edge="1" parent="1" source="LXzQ3wCeS5pLdYK0UjK4-2">
          <mxGeometry width="50" height="50" relative="1" as="geometry">
            <mxPoint x="210" y="310" as="sourcePoint" />
            <mxPoint x="560" y="280" as="targetPoint" />
          </mxGeometry>
        </mxCell>
        <mxCell id="LXzQ3wCeS5pLdYK0UjK4-8" value="Контекст выполнения доверенной ВМ" style="text;html=1;align=center;verticalAlign=middle;whiteSpace=wrap;rounded=0;" vertex="1" parent="1">
          <mxGeometry x="410" y="250" width="130" height="30" as="geometry" />
        </mxCell>
        <mxCell id="LXzQ3wCeS5pLdYK0UjK4-9" value="" style="endArrow=classic;html=1;rounded=0;entryX=0.25;entryY=1;entryDx=0;entryDy=0;exitX=0.11;exitY=-0.033;exitDx=0;exitDy=0;exitPerimeter=0;" edge="1" parent="1">
          <mxGeometry width="50" height="50" relative="1" as="geometry">
            <mxPoint x="221" y="400" as="sourcePoint" />
            <mxPoint x="220" y="311" as="targetPoint" />
          </mxGeometry>
        </mxCell>
        <mxCell id="LXzQ3wCeS5pLdYK0UjK4-10" value="ARM TrustZone" style="text;html=1;align=center;verticalAlign=middle;whiteSpace=wrap;rounded=0;" vertex="1" parent="1">
          <mxGeometry x="170" y="400" width="100" height="30" as="geometry" />
        </mxCell>
        <mxCell id="LXzQ3wCeS5pLdYK0UjK4-11" value="A0" style="text;html=1;align=center;verticalAlign=middle;whiteSpace=wrap;rounded=0;" vertex="1" parent="1">
          <mxGeometry x="360" y="290" width="60" height="30" as="geometry" />
        </mxCell>
        <mxCell id="CEB0nDuukxXMBNJPYlxX-1" value="" style="endArrow=classic;html=1;rounded=0;entryX=0.75;entryY=0;entryDx=0;entryDy=0;" edge="1" parent="1">
          <mxGeometry width="50" height="50" relative="1" as="geometry">
            <mxPoint x="220.5" y="150" as="sourcePoint" />
            <mxPoint x="220" y="250" as="targetPoint" />
          </mxGeometry>
        </mxCell>
        <mxCell id="CEB0nDuukxXMBNJPYlxX-2" value="Гипервизор" style="text;html=1;align=center;verticalAlign=middle;whiteSpace=wrap;rounded=0;" vertex="1" parent="1">
          <mxGeometry x="120" y="180" width="100" height="30" as="geometry" />
        </mxCell>
        <mxCell id="CEB0nDuukxXMBNJPYlxX-3" value="" style="endArrow=classic;html=1;rounded=0;entryX=0.25;entryY=1;entryDx=0;entryDy=0;exitX=0.11;exitY=-0.033;exitDx=0;exitDy=0;exitPerimeter=0;" edge="1" parent="1">
          <mxGeometry width="50" height="50" relative="1" as="geometry">
            <mxPoint x="331" y="400" as="sourcePoint" />
            <mxPoint x="330" y="311" as="targetPoint" />
          </mxGeometry>
        </mxCell>
        <mxCell id="CEB0nDuukxXMBNJPYlxX-4" value="Виртуализация ARM" style="text;html=1;align=center;verticalAlign=middle;whiteSpace=wrap;rounded=0;" vertex="1" parent="1">
          <mxGeometry x="270" y="400" width="130" height="30" as="geometry" />
        </mxCell>
      </root>
    </mxGraphModel>
  </diagram>
  <diagram id="3tlhMPdmY8ixvJjufG2K" name="Page-2">
    <mxGraphModel dx="2035" dy="654" grid="1" gridSize="10" guides="1" tooltips="1" connect="1" arrows="1" fold="1" page="1" pageScale="1" pageWidth="850" pageHeight="1100" math="0" shadow="0">
      <root>
        <mxCell id="0" />
        <mxCell id="1" parent="0" />
        <mxCell id="0VKuLTN7E4tZpJ-d6PUg-1" value="Сохранить контекст выполнения гостевой ВМ в безопасном мире" style="rounded=0;whiteSpace=wrap;html=1;" vertex="1" parent="1">
          <mxGeometry x="150" y="250" width="250" height="60" as="geometry" />
        </mxCell>
        <mxCell id="0VKuLTN7E4tZpJ-d6PUg-2" value="Найти идентификатор доверенной ВМ" style="rounded=0;whiteSpace=wrap;html=1;" vertex="1" parent="1">
          <mxGeometry x="440" y="350" width="250" height="60" as="geometry" />
        </mxCell>
        <mxCell id="LqwwcWGLCnrZOqNEBrvj-1" value="Восстановить контекст выполнения доверенной ВМ" style="rounded=0;whiteSpace=wrap;html=1;" vertex="1" parent="1">
          <mxGeometry x="775" y="450" width="250" height="60" as="geometry" />
        </mxCell>
        <mxCell id="bsQbiU3whHpoO2EpmfmQ-1" value="" style="endArrow=classic;html=1;rounded=0;entryX=0;entryY=0.5;entryDx=0;entryDy=0;" edge="1" parent="1">
          <mxGeometry width="50" height="50" relative="1" as="geometry">
            <mxPoint x="-10" y="280" as="sourcePoint" />
            <mxPoint x="150" y="280" as="targetPoint" />
          </mxGeometry>
        </mxCell>
        <mxCell id="bsQbiU3whHpoO2EpmfmQ-2" value="Контекст выполнения гостевой ВМ" style="text;html=1;align=center;verticalAlign=middle;whiteSpace=wrap;rounded=0;" vertex="1" parent="1">
          <mxGeometry y="250" width="140" height="30" as="geometry" />
        </mxCell>
        <mxCell id="LJFmXYWyVl-JJjTLYqEY-1" value="" style="endArrow=classic;html=1;rounded=0;entryX=0.75;entryY=0;entryDx=0;entryDy=0;" edge="1" parent="1">
          <mxGeometry width="50" height="50" relative="1" as="geometry">
            <mxPoint x="565" y="250" as="sourcePoint" />
            <mxPoint x="564.5" y="350" as="targetPoint" />
          </mxGeometry>
        </mxCell>
        <mxCell id="LJFmXYWyVl-JJjTLYqEY-2" value="Гипервизор" style="text;html=1;align=center;verticalAlign=middle;whiteSpace=wrap;rounded=0;" vertex="1" parent="1">
          <mxGeometry x="515" y="220" width="100" height="30" as="geometry" />
        </mxCell>
        <mxCell id="SKgszW9dnvSs3LAPlZ34-1" value="" style="endArrow=classic;html=1;rounded=0;exitX=1;exitY=0.5;exitDx=0;exitDy=0;" edge="1" parent="1">
          <mxGeometry width="50" height="50" relative="1" as="geometry">
            <mxPoint x="1025" y="480" as="sourcePoint" />
            <mxPoint x="1185" y="480" as="targetPoint" />
          </mxGeometry>
        </mxCell>
        <mxCell id="SKgszW9dnvSs3LAPlZ34-2" value="Контекст выполнения доверенной ВМ" style="text;html=1;align=center;verticalAlign=middle;whiteSpace=wrap;rounded=0;" vertex="1" parent="1">
          <mxGeometry x="1035" y="450" width="130" height="30" as="geometry" />
        </mxCell>
        <mxCell id="rU53EXWVNr6iQH53vTDF-1" value="Модуль переключия контекста" style="text;html=1;align=center;verticalAlign=middle;whiteSpace=wrap;rounded=0;" vertex="1" parent="1">
          <mxGeometry x="270" y="170" width="100" height="30" as="geometry" />
        </mxCell>
        <mxCell id="rU53EXWVNr6iQH53vTDF-2" value="" style="endArrow=classic;html=1;rounded=0;entryX=0.75;entryY=0;entryDx=0;entryDy=0;" edge="1" parent="1">
          <mxGeometry width="50" height="50" relative="1" as="geometry">
            <mxPoint x="270" y="160" as="sourcePoint" />
            <mxPoint x="270" y="250" as="targetPoint" />
          </mxGeometry>
        </mxCell>
        <mxCell id="rU53EXWVNr6iQH53vTDF-3" value="Модуль переключия контекста" style="text;html=1;align=center;verticalAlign=middle;whiteSpace=wrap;rounded=0;" vertex="1" parent="1">
          <mxGeometry x="900" y="365" width="100" height="30" as="geometry" />
        </mxCell>
        <mxCell id="rU53EXWVNr6iQH53vTDF-4" value="" style="endArrow=classic;html=1;rounded=0;entryX=0.75;entryY=0;entryDx=0;entryDy=0;" edge="1" parent="1">
          <mxGeometry width="50" height="50" relative="1" as="geometry">
            <mxPoint x="900" y="360" as="sourcePoint" />
            <mxPoint x="899.58" y="450" as="targetPoint" />
          </mxGeometry>
        </mxCell>
        <mxCell id="rU53EXWVNr6iQH53vTDF-5" value="" style="endArrow=classic;html=1;rounded=0;exitX=1;exitY=0.5;exitDx=0;exitDy=0;entryX=0;entryY=0.5;entryDx=0;entryDy=0;" edge="1" parent="1" source="0VKuLTN7E4tZpJ-d6PUg-1" target="0VKuLTN7E4tZpJ-d6PUg-2">
          <mxGeometry width="50" height="50" relative="1" as="geometry">
            <mxPoint x="400" y="430" as="sourcePoint" />
            <mxPoint x="450" y="380" as="targetPoint" />
            <Array as="points">
              <mxPoint x="420" y="280" />
              <mxPoint x="420" y="330" />
              <mxPoint x="420" y="380" />
            </Array>
          </mxGeometry>
        </mxCell>
        <mxCell id="rU53EXWVNr6iQH53vTDF-7" value="" style="endArrow=classic;html=1;rounded=0;exitX=1;exitY=0.5;exitDx=0;exitDy=0;entryX=0;entryY=0.5;entryDx=0;entryDy=0;" edge="1" parent="1" source="0VKuLTN7E4tZpJ-d6PUg-2" target="LqwwcWGLCnrZOqNEBrvj-1">
          <mxGeometry width="50" height="50" relative="1" as="geometry">
            <mxPoint x="820" y="420" as="sourcePoint" />
            <mxPoint x="870" y="370" as="targetPoint" />
            <Array as="points">
              <mxPoint x="710" y="380" />
              <mxPoint x="710" y="480" />
            </Array>
          </mxGeometry>
        </mxCell>
        <mxCell id="rU53EXWVNr6iQH53vTDF-9" value="ARM TrustZone" style="text;html=1;align=center;verticalAlign=middle;whiteSpace=wrap;rounded=0;" vertex="1" parent="1">
          <mxGeometry x="850" y="600" width="100" height="30" as="geometry" />
        </mxCell>
        <mxCell id="rU53EXWVNr6iQH53vTDF-10" value="" style="endArrow=classic;html=1;rounded=0;exitX=0.5;exitY=0;exitDx=0;exitDy=0;entryX=0.5;entryY=1;entryDx=0;entryDy=0;" edge="1" parent="1" source="rU53EXWVNr6iQH53vTDF-9" target="LqwwcWGLCnrZOqNEBrvj-1">
          <mxGeometry width="50" height="50" relative="1" as="geometry">
            <mxPoint x="860" y="510" as="sourcePoint" />
            <mxPoint x="910" y="460" as="targetPoint" />
          </mxGeometry>
        </mxCell>
        <mxCell id="rU53EXWVNr6iQH53vTDF-11" value="" style="endArrow=classic;html=1;rounded=0;entryX=0.5;entryY=1;entryDx=0;entryDy=0;" edge="1" parent="1" target="0VKuLTN7E4tZpJ-d6PUg-1">
          <mxGeometry width="50" height="50" relative="1" as="geometry">
            <mxPoint x="275" y="400" as="sourcePoint" />
            <mxPoint x="500" y="440" as="targetPoint" />
          </mxGeometry>
        </mxCell>
        <mxCell id="rU53EXWVNr6iQH53vTDF-12" value="ARM TrustZone" style="text;html=1;align=center;verticalAlign=middle;whiteSpace=wrap;rounded=0;" vertex="1" parent="1">
          <mxGeometry x="225" y="400" width="100" height="30" as="geometry" />
        </mxCell>
        <mxCell id="rU53EXWVNr6iQH53vTDF-13" value="" style="endArrow=classic;html=1;rounded=0;entryX=0.5;entryY=1;entryDx=0;entryDy=0;" edge="1" parent="1">
          <mxGeometry width="50" height="50" relative="1" as="geometry">
            <mxPoint x="560" y="500" as="sourcePoint" />
            <mxPoint x="560" y="410" as="targetPoint" />
          </mxGeometry>
        </mxCell>
        <mxCell id="rU53EXWVNr6iQH53vTDF-14" value="Виртуализация ARM" style="text;html=1;align=center;verticalAlign=middle;whiteSpace=wrap;rounded=0;" vertex="1" parent="1">
          <mxGeometry x="500" y="500" width="125" height="30" as="geometry" />
        </mxCell>
        <mxCell id="rU53EXWVNr6iQH53vTDF-15" value="VM ID" style="text;html=1;align=center;verticalAlign=middle;whiteSpace=wrap;rounded=0;" vertex="1" parent="1">
          <mxGeometry x="700" y="450" width="80" height="30" as="geometry" />
        </mxCell>
        <mxCell id="RJ-yyVGkGGPa7BktpvYt-1" value="A1" style="text;html=1;align=center;verticalAlign=middle;whiteSpace=wrap;rounded=0;" vertex="1" parent="1">
          <mxGeometry x="360" y="290" width="60" height="30" as="geometry" />
        </mxCell>
        <mxCell id="RJ-yyVGkGGPa7BktpvYt-2" value="A2" style="text;html=1;align=center;verticalAlign=middle;whiteSpace=wrap;rounded=0;" vertex="1" parent="1">
          <mxGeometry x="650" y="390" width="60" height="30" as="geometry" />
        </mxCell>
        <mxCell id="RJ-yyVGkGGPa7BktpvYt-3" value="A3" style="text;html=1;align=center;verticalAlign=middle;whiteSpace=wrap;rounded=0;" vertex="1" parent="1">
          <mxGeometry x="980" y="490" width="60" height="30" as="geometry" />
        </mxCell>
      </root>
    </mxGraphModel>
  </diagram>
</mxfile>
